<svg id="Layer_1" data-name="Layer 1" xmlns="http://www.w3.org/2000/svg" viewBox="0 0 589 186"><title>logo</title><path d="M124,88.1q0,63-58.9,63.1Q8,151.2,8,89.6V8.7H39V90q0,34.05,26.7,34C83.2,124,92,113,92,91.2V8.7h32Z" transform="translate(0 -8.7)" fill="#fff"/><path d="M238,149.7H154V8.7h32v115h52Z" transform="translate(0 -8.7)" fill="#fff"/><path d="M341.5,35.2h-40v114h-32V35.2h-39V9.2h111Z" transform="translate(0 -8.7)" fill="blue" stroke="#fff" stroke-miterlimit="10"/><path d="M444,149.7H360V8.7h81v26H392v31h46v26H392v32h52Z" transform="translate(0 -8.7)" fill="#fff"/><path d="M583.3,149.7h-39L503.2,88.5a55.65,55.65,0,0,1-3.7-7.8H499v68H467V8.7h32v66h.5q1.2-2.7,3.9-7.8L541.9,8.7h37.2L529.9,76Z" transform="translate(0 -8.7)" fill="#fff"/><path d="M21.3,178.7a7.94,7.94,0,0,1-2.6,5.4,9.07,9.07,0,0,1-5.9,1.9,7.83,7.83,0,0,1-6.4-2.8A11.25,11.25,0,0,1,4,175.7v-2.1a12.44,12.44,0,0,1,1.1-5.4,8.56,8.56,0,0,1,3.2-3.6,8.78,8.78,0,0,1,4.7-1.3,7.84,7.84,0,0,1,5.7,2,8,8,0,0,1,2.5,5.4H18.3a6,6,0,0,0-1.7-3.8,5.24,5.24,0,0,0-3.6-1.2,5.4,5.4,0,0,0-4.5,2.1,9.42,9.42,0,0,0-1.6,5.9v2.1a9.59,9.59,0,0,0,1.5,5.7,4.92,4.92,0,0,0,4.3,2.1,5.68,5.68,0,0,0,3.8-1.1,6.17,6.17,0,0,0,1.8-3.8Z" transform="translate(0 -8.7)" fill="#fff"/><path d="M41.2,175.3a12.89,12.89,0,0,1-1.1,5.5,8.11,8.11,0,0,1-3,3.6,8,8,0,0,1-4.5,1.2,8.92,8.92,0,0,1-4.5-1.2,8.43,8.43,0,0,1-3-3.5,12.3,12.3,0,0,1-1.1-5.3V174a12.44,12.44,0,0,1,1.1-5.4,8.11,8.11,0,0,1,3-3.6,8.73,8.73,0,0,1,9-.1,8.11,8.11,0,0,1,3,3.6,14.59,14.59,0,0,1,1.1,5.5ZM38,173.9a10.19,10.19,0,0,0-1.6-6.1,5.1,5.1,0,0,0-4.4-2.1,4.92,4.92,0,0,0-4.3,2.1,9.42,9.42,0,0,0-1.6,5.9v1.6a9.89,9.89,0,0,0,1.6,6,5.45,5.45,0,0,0,4.4,2.2,5.1,5.1,0,0,0,4.4-2.1,10.1,10.1,0,0,0,1.6-5.9Z" transform="translate(0 -8.7)" fill="#fff"/><path d="M48.9,163.7l7.5,17.1,7.5-17.1H67v21H64v-8.2l.3-8.9-7.2,17H55.2l-7.5-17,.3,8.8v8.2H45v-21h3.9Z" transform="translate(0 -8.7)" fill="#fff"/><path d="M74,176.7v9H71v-22h8.4a9,9,0,0,1,5.9,1.8,5.77,5.77,0,0,1,2.1,4.7,6,6,0,0,1-2.1,4.8,9.5,9.5,0,0,1-5.9,1.7Zm0-2h4.8a4.81,4.81,0,0,0,3.3-1,3.65,3.65,0,0,0,1.1-3,3.77,3.77,0,0,0-1.1-2.9,4.2,4.2,0,0,0-3.2-1.1h-5v8Z" transform="translate(0 -8.7)" fill="#fff"/><path d="M105,163.7v14.8a6.87,6.87,0,0,1-1.8,5,7.22,7.22,0,0,1-5,2.2h-.7a7.63,7.63,0,0,1-5.4-1.9,6.93,6.93,0,0,1-2-5.3V163.7h3v14.4a4.54,4.54,0,0,0,4,4.9H98a5,5,0,0,0,3.7-1.3,4.88,4.88,0,0,0,1.3-3.6V163.6h2Z" transform="translate(0 -8.7)" fill="#fff"/><path d="M124,165.7h-6v20h-3v-20h-7v-2h16Z" transform="translate(0 -8.7)" fill="#fff"/><path d="M140,175.7H130v8h11v1H127v-21h14v2H130v8h10Z" transform="translate(0 -8.7)" fill="#fff"/><path d="M152.1,176.7H147v8h-2v-21h6.8a8.19,8.19,0,0,1,5.4,1.6,6.56,6.56,0,0,1,.9,8.1,5.81,5.81,0,0,1-2.9,2.2l4.8,8.9v.2h-3.1Zm-4.1-2h4.3a4.43,4.43,0,0,0,3.3-1.1,3.52,3.52,0,0,0,1.2-2.9,3.85,3.85,0,0,0-1.2-3,5.33,5.33,0,0,0-3.4-1.1H148Z" transform="translate(0 -8.7)" fill="#fff"/><path d="M178.2,176.7H173v8h-2v-21h6.8a8.19,8.19,0,0,1,5.4,1.6,6.56,6.56,0,0,1,.9,8.1,5.81,5.81,0,0,1-2.9,2.2l4.8,8.9v.2h-3.1Zm-5.2-2h4.3a4.43,4.43,0,0,0,3.3-1.1,3.52,3.52,0,0,0,1.2-2.9,3.85,3.85,0,0,0-1.2-3,5.33,5.33,0,0,0-3.4-1.1H173Z" transform="translate(0 -8.7)" fill="#fff"/><path d="M201,175.7h-9v8h11v1H189v-21h14v2H192v8h9Z" transform="translate(0 -8.7)" fill="#fff"/><path d="M209,176.7v9h-3v-22h8.4a9,9,0,0,1,5.9,1.8,5.77,5.77,0,0,1,2.1,4.7,5.88,5.88,0,0,1-2,4.8,9.5,9.5,0,0,1-5.9,1.7Zm0-2h4.8a4.81,4.81,0,0,0,3.3-1,3.65,3.65,0,0,0,1.1-3,3.77,3.77,0,0,0-1.1-2.9,4.2,4.2,0,0,0-3.2-1.1h-5v8Z" transform="translate(0 -8.7)" fill="#fff"/><path d="M234.8,179.7h-8.9l-2,5h-2.8l8-21h2.4l8,21h-2.7Zm-8-2h7.3l-3.6-10Z" transform="translate(0 -8.7)" fill="#fff"/><path d="M246,184.7h-3v-21h3Z" transform="translate(0 -8.7)" fill="#fff"/><path d="M258.1,176.7H253v8h-2v-21h6.8a8.19,8.19,0,0,1,5.4,1.6,6.56,6.56,0,0,1,.9,8.1,5.81,5.81,0,0,1-2.9,2.2l4.8,8.9v.2h-3.1Zm-4.1-2h4.3a4.43,4.43,0,0,0,3.3-1.1,3.52,3.52,0,0,0,1.2-2.9,3.85,3.85,0,0,0-1.2-3,5.33,5.33,0,0,0-3.4-1.1H254Z" transform="translate(0 -8.7)" fill="#fff"/><path d="M275.6,175.4a12.53,12.53,0,0,1-5.3-2.6,5,5,0,0,1-1.7-3.8,5.31,5.31,0,0,1,2-4.2,8.4,8.4,0,0,1,5.3-1.7,8.6,8.6,0,0,1,3.9.9,6.67,6.67,0,0,1,2.7,2.3,6.39,6.39,0,0,1,1,3.3h-2.9a3.93,3.93,0,0,0-1.2-3.1,4.91,4.91,0,0,0-3.5-1.1,5.49,5.49,0,0,0-3.3.9,3.17,3.17,0,0,0-1.2,2.5,2.66,2.66,0,0,0,1.1,2.2,11.93,11.93,0,0,0,3.8,1.7,15.43,15.43,0,0,1,4.2,1.7,5.56,5.56,0,0,1,2.2,2.1,4.69,4.69,0,0,1,.7,2.8,5.31,5.31,0,0,1-2,4.2,8.79,8.79,0,0,1-5.4,1.6,11.5,11.5,0,0,1-4.1-.8A6.63,6.63,0,0,1,269,182a5.58,5.58,0,0,1-1-3.3h2.8a3.79,3.79,0,0,0,1.4,3.1,5.84,5.84,0,0,0,3.8,1.1,5.16,5.16,0,0,0,3.4-.9,3,3,0,0,0,1.2-2.5,2.89,2.89,0,0,0-1.1-2.4A10.54,10.54,0,0,0,275.6,175.4Z" transform="translate(0 -8.7)" fill="#fff"/><path d="M284,181l-1.5-1.1A7,7,0,0,0,284,176v-2.2h3v1.9c-.5,1-.7,2.1-1.2,3A5.78,5.78,0,0,1,284,181Z" transform="translate(0 -8.7)" fill="#fff"/><path d="M306.7,175.4a12.53,12.53,0,0,1-5.3-2.6,5,5,0,0,1-1.7-3.8,5.31,5.31,0,0,1,2-4.2,8.4,8.4,0,0,1,5.3-1.7,8.6,8.6,0,0,1,3.9.9,6.67,6.67,0,0,1,2.7,2.3,6.39,6.39,0,0,1,1,3.3h-2.8a3.93,3.93,0,0,0-1.2-3.1,4.91,4.91,0,0,0-3.5-1.1,5.49,5.49,0,0,0-3.3.9,3.17,3.17,0,0,0-1.2,2.5,2.66,2.66,0,0,0,1.1,2.2,11.93,11.93,0,0,0,3.8,1.7,15.43,15.43,0,0,1,4.2,1.7,5.33,5.33,0,0,1,2.9,4.9,5.31,5.31,0,0,1-2,4.2,8.79,8.79,0,0,1-5.4,1.6,11.5,11.5,0,0,1-4.1-.8,6.63,6.63,0,0,1-2.9-2.3,5.58,5.58,0,0,1-1-3.3H302a4.1,4.1,0,0,0,1.4,3.1,5.84,5.84,0,0,0,3.8,1.1,5.16,5.16,0,0,0,3.4-.9,3,3,0,0,0,1.2-2.5,3.19,3.19,0,0,0-1.1-2.4A11.8,11.8,0,0,0,306.7,175.4Z" transform="translate(0 -8.7)" fill="#fff"/><path d="M330,179.7h-9l-2,5h-2.8l8-21h2.4l8,21H332Zm-8.1-2h7.3l-3.6-10Z" transform="translate(0 -8.7)" fill="#fff"/><path d="M341,182.7h10v2H338v-21h3Z" transform="translate(0 -8.7)" fill="#fff"/><path d="M366,175.7h-9v8h11v1H354v-21h13v2H356v8h10Z" transform="translate(0 -8.7)" fill="#fff"/><path d="M377.2,175.4a12.53,12.53,0,0,1-5.3-2.6,5,5,0,0,1-1.7-3.8,5.31,5.31,0,0,1,2-4.2,8.4,8.4,0,0,1,5.3-1.7,8.6,8.6,0,0,1,3.9.9,6.67,6.67,0,0,1,2.7,2.3,6.39,6.39,0,0,1,1,3.3h-2.8a3.93,3.93,0,0,0-1.2-3.1,6,6,0,0,0-6.7-.2,3.17,3.17,0,0,0-1.2,2.5,2.66,2.66,0,0,0,1.1,2.2,11.93,11.93,0,0,0,3.8,1.7,15.43,15.43,0,0,1,4.2,1.7,5.33,5.33,0,0,1,2.9,4.9,5.31,5.31,0,0,1-2,4.2,8.79,8.79,0,0,1-5.4,1.6,11.5,11.5,0,0,1-4.1-.8,6.63,6.63,0,0,1-2.9-2.3,5.58,5.58,0,0,1-1-3.3h2.8a4.1,4.1,0,0,0,1.4,3.1,5.84,5.84,0,0,0,3.8,1.1,5.16,5.16,0,0,0,3.4-.9,3,3,0,0,0,1.2-2.5,3.19,3.19,0,0,0-1.1-2.4A12.3,12.3,0,0,0,377.2,175.4Z" transform="translate(0 -8.7)" fill="#fff"/><path d="M385.6,181l-1.5-1.1a4,4,0,0,0,.9-3.9v-2.2h3v1.9a5.18,5.18,0,0,1-.5,3A7.1,7.1,0,0,1,385.6,181Z" transform="translate(0 -8.7)" fill="#fff"/><path d="M419,184.7h-2.6L405,168.6v16.2h-3v-21h2.4L416,180V163.7h3Z" transform="translate(0 -8.7)" fill="#fff"/><path d="M435,175.7h-9v8h11v1H423v-21h14v2H426v8h9Z" transform="translate(0 -8.7)" fill="#fff"/><path d="M455,165.7h-6v20h-3v-20h-7v-2h16Z" transform="translate(0 -8.7)" fill="#fff"/><path d="M463.6,178.1l.4,2.8.6-2.5,4.2-14.6h2.3l4,14.6.6,2.5.4-2.8,3.3-14.4h2.8l-5.1,21h-2.5l-4.3-15.3-.3-1.6-.3,1.6-4.5,15.3h-2.5l-5.1-21h2.8Z" transform="translate(0 -8.7)" fill="#fff"/><path d="M502.2,175.3a13.19,13.19,0,0,1-1.1,5.5,8.11,8.11,0,0,1-3,3.6,8.49,8.49,0,0,1-12-3.6,12.3,12.3,0,0,1-1.1-5.3V174a12.44,12.44,0,0,1,1.1-5.4,8.53,8.53,0,0,1,11.2-4.1,5.94,5.94,0,0,1,.8.4,8.11,8.11,0,0,1,3,3.6,14.59,14.59,0,0,1,1.1,5.5Zm-3.2-1.4a10.19,10.19,0,0,0-1.6-6.1,5.1,5.1,0,0,0-4.4-2.1,4.92,4.92,0,0,0-4.3,2.1,9.42,9.42,0,0,0-1.6,5.9v1.6a9.89,9.89,0,0,0,1.6,6,5.59,5.59,0,0,0,7.9,1,7.64,7.64,0,0,0,.9-.9,10.1,10.1,0,0,0,1.6-5.9v-1.6Z" transform="translate(0 -8.7)" fill="#fff"/><path d="M513.7,176.7H509v8h-3v-21h6.8a8.19,8.19,0,0,1,5.4,1.6,6.56,6.56,0,0,1,.9,8.1,5.81,5.81,0,0,1-2.9,2.2l4.8,8.9v.2h-2.8Zm-4.7-2h4.3a4.43,4.43,0,0,0,3.3-1.1,3.52,3.52,0,0,0,1.2-2.9,3.85,3.85,0,0,0-1.2-3,5.33,5.33,0,0,0-3.4-1.1H509Z" transform="translate(0 -8.7)" fill="#fff"/><path d="M530,175.4l-2,2.7v6.6h-3v-21h2v10.8l9.9-10.8h3.4l-8.4,9.7,9,11.3h-3.3Z" transform="translate(0 -8.7)" fill="#fff"/><path d="M546,184.7h-3v-21h3Z" transform="translate(0 -8.7)" fill="#fff"/><path d="M568,184.7h-1.6L555,168.6v16.2h-3v-21h1.5L565,180V163.7h3Z" transform="translate(0 -8.7)" fill="#fff"/><path d="M589,182.5a8,8,0,0,1-3.3,2.3,13.75,13.75,0,0,1-4.5.8,9.29,9.29,0,0,1-4.6-1.2,7.56,7.56,0,0,1-3.1-3.5,6.3,6.3,0,0,1-.5-5.2v-1.9a8.42,8.42,0,0,1,1.6-7.5,7.59,7.59,0,0,1,6.3-2.6,8.11,8.11,0,0,1,5.4,1.7c1.4,1.2,2.5,5.3,2.5,5.3H586a4.77,4.77,0,0,0-5.1-4.3,5.27,5.27,0,0,0-4.4,2,9.72,9.72,0,0,0-1.5,5.8v1.7a9.11,9.11,0,0,0,1.7,5.7,5.28,5.28,0,0,0,4.5,2.1,8.63,8.63,0,0,0,2.8-.4,3.74,3.74,0,0,0,2-1.2v-5.5h-5v-2h8Z" transform="translate(0 -8.7)" fill="#fff"/><rect y="177" width="585" height="9" fill="#fff"/></svg>