<?xml version="1.0" encoding="utf-8"?>
<!-- Generator: Adobe Illustrator 23.0.1, SVG Export Plug-In . SVG Version: 6.00 Build 0)  -->
<svg version="1.1" id="Layer_1" xmlns="http://www.w3.org/2000/svg" xmlns:xlink="http://www.w3.org/1999/xlink" x="0px" y="0px"
	 viewBox="0 0 586.1 194.7" style="enable-background:new 0 0 586.1 194.7;" xml:space="preserve">
<style type="text/css">
	.st0{fill:#FFFFFF;}
	.st1{fill:#0000FF;stroke:#FFFFFF;stroke-miterlimit:10;}
</style>
<title>logo</title>
<path class="st0" d="M124,88.1c0,42-19.6,63.1-58.9,63.1C27,151.2,8,130.7,8,89.6V8.7h31V90c0,22.7,8.9,34,26.7,34
	C83.2,124,92,113,92,91.2V8.7h32V88.1z"/>
<path class="st0" d="M238,149.7h-84V8.7h32v115h52L238,149.7z"/>
<path class="st1" d="M341.5,35.2h-40v114h-32v-114h-39v-26h111V35.2z"/>
<path class="st0" d="M444,149.7h-84V8.7h81v26h-49v31h46v26h-46v32h52L444,149.7z"/>
<path class="st0" d="M583.3,149.7h-39l-41.1-61.2c-1.4-2.5-2.7-5.1-3.7-7.8H499v68h-32V8.7h32v66h0.5c0.8-1.8,2.1-4.4,3.9-7.8
	l38.5-58.2h37.2L529.9,76L583.3,149.7z"/>
<path class="st0" d="M21.3,178.7c-0.1,2.1-1.1,4-2.6,5.4c-1.7,1.3-3.8,2-5.9,1.9c-2.5,0.1-4.8-0.9-6.4-2.8c-1.7-2.1-2.5-4.8-2.4-7.5
	v-2.1c0-1.9,0.3-3.7,1.1-5.4c0.7-1.5,1.8-2.7,3.2-3.6c1.4-0.9,3.1-1.3,4.7-1.3c2.1-0.1,4.2,0.6,5.7,2c1.5,1.4,2.4,3.4,2.5,5.4h-2.9
	c-0.1-1.4-0.7-2.8-1.7-3.8c-1-0.8-2.3-1.3-3.6-1.2c-1.7-0.1-3.4,0.7-4.5,2.1c-1.2,1.7-1.7,3.8-1.6,5.9v2.1c-0.1,2,0.4,4,1.5,5.7
	c1,1.4,2.6,2.2,4.3,2.1c1.4,0.1,2.7-0.3,3.8-1.1c1-1,1.7-2.4,1.8-3.8L21.3,178.7z"/>
<path class="st0" d="M41.2,175.3c0,1.9-0.3,3.8-1.1,5.5c-0.6,1.5-1.7,2.7-3,3.6c-1.4,0.8-2.9,1.3-4.5,1.2c-1.6,0-3.1-0.4-4.5-1.2
	c-1.3-0.9-2.4-2.1-3-3.5c-0.8-1.7-1.1-3.5-1.1-5.3V174c0-1.9,0.3-3.7,1.1-5.4c0.6-1.5,1.7-2.7,3-3.6c1.3-0.8,2.9-1.3,4.5-1.3
	c1.6,0,3.2,0.4,4.5,1.2c1.3,0.9,2.4,2.1,3,3.6c0.7,1.7,1.1,3.6,1.1,5.5L41.2,175.3z M38,173.9c0.1-2.1-0.4-4.3-1.6-6.1
	c-1-1.4-2.7-2.2-4.4-2.1c-1.7-0.1-3.3,0.7-4.3,2.1c-1.2,1.7-1.7,3.8-1.6,5.9v1.6c-0.1,2.1,0.4,4.2,1.6,6c1,1.4,2.7,2.2,4.4,2.2
	c1.7,0.1,3.4-0.7,4.4-2.1c1.1-1.7,1.7-3.8,1.6-5.9L38,173.9z"/>
<path class="st0" d="M48.9,163.7l7.5,17.1l7.5-17.1H67v21h-3v-8.2l0.3-8.9l-7.2,17h-1.9l-7.5-17l0.3,8.8v8.2h-3v-21H48.9z"/>
<path class="st0" d="M74,176.7v9h-3v-22h8.4c2.1-0.1,4.2,0.5,5.9,1.8c1.4,1.2,2.2,2.9,2.1,4.7c0.1,1.8-0.7,3.6-2.1,4.8
	c-1.7,1.2-3.8,1.8-5.9,1.7L74,176.7z M74,174.7h4.8c1.2,0.1,2.4-0.3,3.3-1c0.8-0.8,1.2-1.8,1.1-3c0.1-1.1-0.4-2.2-1.1-2.9
	c-0.9-0.8-2-1.2-3.2-1.1h-5V174.7z"/>
<path class="st0" d="M105,163.7v14.8c0.1,1.9-0.6,3.7-1.8,5c-1.3,1.4-3.1,2.1-5,2.2h-0.7c-2,0.1-3.9-0.6-5.4-1.9
	c-1.4-1.4-2.1-3.3-2-5.3v-14.8h3v14.4c-0.3,2.4,1.6,4.6,4,4.9c0.3,0,0.6,0,0.9,0c1.4,0.1,2.7-0.4,3.7-1.3c0.9-1,1.4-2.3,1.3-3.6
	v-14.5H105z"/>
<path class="st0" d="M124,165.7h-6v20h-3v-20h-7v-2h16V165.7z"/>
<path class="st0" d="M140,175.7h-10v8h11v1h-14v-21h14v2h-11v8h10V175.7z"/>
<path class="st0" d="M152.1,176.7H147v8h-2v-21h6.8c1.9-0.1,3.8,0.4,5.4,1.6c1.3,1.2,2,2.9,1.9,4.7c0,1.2-0.3,2.4-1,3.4
	c-0.7,1-1.7,1.8-2.9,2.2l4.8,8.9v0.2h-3.1L152.1,176.7z M148,174.7h4.3c1.2,0.1,2.4-0.3,3.3-1.1c0.8-0.7,1.3-1.8,1.2-2.9
	c0.1-1.1-0.4-2.2-1.2-3c-1-0.8-2.2-1.1-3.4-1.1H148V174.7z"/>
<path class="st0" d="M178.2,176.7H173v8h-2v-21h6.8c1.9-0.1,3.8,0.4,5.4,1.6c1.3,1.2,2,2.9,1.9,4.7c0,1.2-0.3,2.4-1,3.4
	c-0.7,1-1.7,1.8-2.9,2.2l4.8,8.9v0.2h-3.1L178.2,176.7z M173,174.7h4.3c1.2,0.1,2.4-0.3,3.3-1.1c0.8-0.7,1.3-1.8,1.2-2.9
	c0.1-1.1-0.4-2.2-1.2-3c-1-0.8-2.2-1.1-3.4-1.1H173L173,174.7z"/>
<path class="st0" d="M201,175.7h-9v8h11v1h-14v-21h14v2h-11v8h9V175.7z"/>
<path class="st0" d="M209,176.7v9h-3v-22h8.4c2.1-0.1,4.2,0.5,5.9,1.8c1.4,1.2,2.2,2.9,2.1,4.7c0.1,1.8-0.6,3.6-2,4.8
	c-1.7,1.2-3.8,1.8-5.9,1.7L209,176.7z M209,174.7h4.8c1.2,0.1,2.4-0.3,3.3-1c0.8-0.8,1.2-1.8,1.1-3c0.1-1.1-0.4-2.2-1.1-2.9
	c-0.9-0.8-2-1.2-3.2-1.1h-5V174.7z"/>
<path class="st0" d="M234.8,179.7h-8.9l-2,5h-2.8l8-21h2.4l8,21h-2.7L234.8,179.7z M226.8,177.7h7.3l-3.6-10L226.8,177.7z"/>
<path class="st0" d="M246,184.7h-3v-21h3V184.7z"/>
<path class="st0" d="M258.1,176.7H253v8h-2v-21h6.8c1.9-0.1,3.8,0.4,5.4,1.6c1.3,1.2,2,2.9,1.9,4.7c0,1.2-0.3,2.4-1,3.4
	c-0.7,1-1.7,1.8-2.9,2.2l4.8,8.9v0.2h-3.1L258.1,176.7z M254,174.7h4.3c1.2,0.1,2.4-0.3,3.3-1.1c0.8-0.7,1.3-1.8,1.2-2.9
	c0.1-1.1-0.4-2.2-1.2-3c-1-0.8-2.2-1.1-3.4-1.1H254V174.7z"/>
<path class="st0" d="M275.6,175.4c-1.9-0.4-3.7-1.3-5.3-2.6c-1.1-1-1.7-2.3-1.7-3.8c0-1.6,0.7-3.2,2-4.2c1.5-1.2,3.4-1.7,5.3-1.7
	c1.4,0,2.7,0.3,3.9,0.9c1.1,0.5,2,1.3,2.7,2.3c0.6,1,1,2.1,1,3.3h-2.9c0.1-1.2-0.4-2.3-1.2-3.1c-1-0.8-2.2-1.2-3.5-1.1
	c-1.2-0.1-2.3,0.3-3.3,0.9c-0.8,0.6-1.2,1.6-1.2,2.5c0,0.9,0.4,1.7,1.1,2.2c1.1,0.8,2.4,1.3,3.8,1.7c1.5,0.4,2.9,0.9,4.2,1.7
	c0.9,0.5,1.7,1.2,2.2,2.1c0.5,0.9,0.8,1.8,0.7,2.8c0,1.6-0.7,3.2-2,4.2c-1.6,1.1-3.5,1.7-5.4,1.6c-1.4,0-2.8-0.3-4.1-0.8
	c-1.2-0.5-2.2-1.3-2.9-2.3c-0.7-1-1-2.1-1-3.3h2.8c-0.1,1.2,0.5,2.3,1.4,3.1c1.1,0.8,2.5,1.2,3.8,1.1c1.2,0.1,2.4-0.2,3.4-0.9
	c0.8-0.6,1.2-1.5,1.2-2.5c0.1-0.9-0.4-1.8-1.1-2.4C278.4,176.3,277,175.7,275.6,175.4z"/>
<path class="st0" d="M284,181l-1.5-1.1c0.9-1.1,1.4-2.5,1.5-3.9v-2.2h3v1.9c-0.5,1-0.7,2.1-1.2,3C285.4,179.6,284.8,180.4,284,181z"
	/>
<path class="st0" d="M306.7,175.4c-1.9-0.4-3.7-1.3-5.3-2.6c-1.1-1-1.7-2.3-1.7-3.8c0-1.6,0.7-3.2,2-4.2c1.5-1.2,3.4-1.7,5.3-1.7
	c1.4,0,2.7,0.3,3.9,0.9c1.1,0.5,2,1.3,2.7,2.3c0.6,1,1,2.1,1,3.3h-2.8c0.1-1.2-0.4-2.3-1.2-3.1c-1-0.8-2.2-1.2-3.5-1.1
	c-1.2-0.1-2.3,0.3-3.3,0.9c-0.8,0.6-1.2,1.6-1.2,2.5c0,0.9,0.4,1.7,1.1,2.2c1.1,0.8,2.4,1.3,3.8,1.7c1.5,0.4,2.9,0.9,4.2,1.7
	c0.9,0.5,1.7,1.2,2.2,2.1c0.5,0.9,0.7,1.8,0.7,2.8c0,1.6-0.7,3.2-2,4.2c-1.6,1.1-3.5,1.7-5.4,1.6c-1.4,0-2.8-0.3-4.1-0.8
	c-1.2-0.5-2.2-1.3-2.9-2.3c-0.7-1-1-2.1-1-3.3h2.8c0,1.2,0.5,2.3,1.4,3.1c1.1,0.8,2.5,1.2,3.8,1.1c1.2,0.1,2.4-0.2,3.4-0.9
	c0.8-0.6,1.2-1.5,1.2-2.5c0-0.9-0.4-1.8-1.1-2.4C309.5,176.3,308.1,175.7,306.7,175.4z"/>
<path class="st0" d="M330,179.7H321l-2,5h-2.8l8-21h2.4l8,21H332L330,179.7z M321.9,177.7h7.3l-3.6-10L321.9,177.7z"/>
<path class="st0" d="M341,182.7h10v2h-13v-21h3V182.7z"/>
<path class="st0" d="M366,175.7h-9v8h11v1h-14v-21h13v2h-11v8h10V175.7z"/>
<path class="st0" d="M377.2,175.4c-1.9-0.4-3.7-1.3-5.3-2.6c-1.1-1-1.7-2.3-1.7-3.8c0-1.6,0.7-3.2,2-4.2c1.5-1.2,3.4-1.7,5.3-1.7
	c1.4,0,2.7,0.3,3.9,0.9c1.1,0.5,2,1.3,2.7,2.3c0.6,1,1,2.1,1,3.3h-2.8c0.1-1.2-0.4-2.3-1.2-3.1c-2-1.4-4.6-1.5-6.7-0.2
	c-0.8,0.6-1.2,1.6-1.2,2.5c0,0.9,0.4,1.7,1.1,2.2c1.1,0.8,2.4,1.3,3.8,1.7c1.5,0.4,2.9,0.9,4.2,1.7c0.9,0.5,1.7,1.2,2.2,2.1
	c0.5,0.9,0.7,1.8,0.7,2.8c0,1.6-0.7,3.2-2,4.2c-1.6,1.1-3.5,1.7-5.4,1.6c-1.4,0-2.8-0.3-4.1-0.8c-1.2-0.5-2.2-1.3-2.9-2.3
	c-0.7-1-1-2.1-1-3.3h2.8c0,1.2,0.5,2.3,1.4,3.1c1.1,0.8,2.5,1.2,3.8,1.1c1.2,0.1,2.4-0.2,3.4-0.9c0.8-0.6,1.2-1.5,1.2-2.5
	c0-0.9-0.4-1.8-1.1-2.4C380,176.3,378.7,175.7,377.2,175.4z"/>
<path class="st0" d="M385.6,181l-1.5-1.1c0.9-1.1,1.4-2.5,0.9-3.9v-2.2h3v1.9c0.2,1-0.1,2.1-0.5,3C387,179.6,386.4,180.4,385.6,181z
	"/>
<path class="st0" d="M419,184.7h-2.6L405,168.6v16.2h-3v-21h2.4L416,180v-16.3h3L419,184.7z"/>
<path class="st0" d="M435,175.7h-9v8h11v1h-14v-21h14v2h-11v8h9V175.7z"/>
<path class="st0" d="M455,165.7h-6v20h-3v-20h-7v-2h16V165.7z"/>
<path class="st0" d="M463.6,178.1l0.4,2.8l0.6-2.5l4.2-14.6h2.3l4,14.6l0.6,2.5l0.4-2.8l3.3-14.4h2.8l-5.1,21h-2.5l-4.3-15.3
	l-0.3-1.6l-0.3,1.6l-4.5,15.3h-2.5l-5.1-21h2.8L463.6,178.1z"/>
<path class="st0" d="M502.2,175.3c0,1.9-0.3,3.7-1.1,5.5c-0.6,1.5-1.7,2.7-3,3.6c-1.4,0.8-2.9,1.3-4.5,1.2c-3.2,0.1-6.2-1.8-7.5-4.8
	c-0.8-1.7-1.1-3.5-1.1-5.3V174c0-1.9,0.3-3.7,1.1-5.4c2-4.2,7-6,11.2-4.1c0.3,0.1,0.6,0.3,0.8,0.4c1.3,0.9,2.4,2.1,3,3.6
	c0.7,1.7,1.1,3.6,1.1,5.5L502.2,175.3z M499,173.9c0.1-2.1-0.4-4.3-1.6-6.1c-1-1.4-2.7-2.2-4.4-2.1c-1.7-0.1-3.3,0.7-4.3,2.1
	c-1.2,1.7-1.7,3.8-1.6,5.9v1.6c-0.1,2.1,0.4,4.2,1.6,6c1.9,2.5,5.4,2.9,7.9,1c0.3-0.3,0.7-0.6,0.9-0.9c1.1-1.7,1.7-3.8,1.6-5.9
	V173.9z"/>
<path class="st0" d="M513.7,176.7H509v8h-3v-21h6.8c1.9-0.1,3.8,0.4,5.4,1.6c1.3,1.2,2,2.9,1.9,4.7c0,1.2-0.3,2.4-1,3.4
	c-0.7,1-1.7,1.8-2.9,2.2l4.8,8.9v0.2h-2.8L513.7,176.7z M509,174.7h4.3c1.2,0.1,2.4-0.3,3.3-1.1c0.8-0.7,1.3-1.8,1.2-2.9
	c0.1-1.1-0.4-2.2-1.2-3c-1-0.8-2.2-1.1-3.4-1.1H509L509,174.7z"/>
<path class="st0" d="M530,175.4l-2,2.7v6.6h-3v-21h2v10.8l9.9-10.8h3.4l-8.4,9.7l9,11.3h-3.3L530,175.4z"/>
<path class="st0" d="M546,184.7h-3v-21h3L546,184.7z"/>
<path class="st0" d="M568,184.7h-1.6L555,168.6v16.2h-3v-21h1.5L565,180v-16.3h3L568,184.7z"/>
<path class="st0" d="M589,182.5c-1,1.1-2.1,1.9-3.3,2.3c-1.4,0.5-3,0.8-4.5,0.8c-1.6,0-3.2-0.4-4.6-1.2c-1.4-0.8-2.4-2-3.1-3.5
	c-0.8-1.6-1.2-3.4-0.5-5.2v-1.9c-0.7-3.2,0.1-5.7,1.6-7.5c1.6-1.8,3.9-2.8,6.3-2.6c1.9-0.1,3.9,0.5,5.4,1.7c1.4,1.2,2.5,5.3,2.5,5.3
	H586c-0.5-2.8-2.3-4.3-5.1-4.3c-1.7-0.1-3.4,0.7-4.4,2c-1.1,1.7-1.6,3.7-1.5,5.8v1.7c-0.1,2,0.5,4,1.7,5.7c1.1,1.4,2.7,2.2,4.5,2.1
	c1,0,1.9-0.1,2.8-0.4c0.8-0.2,1.5-0.6,2-1.2v-5.5h-5v-2h8V182.5z"/>
<rect y="185.7" class="st0" width="585" height="9"/>
</svg>
